<?xml version="1.0" encoding="utf-8"?>
<!-- Generator: Adobe Illustrator 19.0.1, SVG Export Plug-In . SVG Version: 6.00 Build 0)  -->
<svg version="1.1"
	 id="Layer_1" xmlns:svg="http://www.w3.org/2000/svg" xmlns:sodipodi="http://sodipodi.sourceforge.net/DTD/sodipodi-0.dtd" xmlns:rdf="http://www.w3.org/1999/02/22-rdf-syntax-ns#" xmlns:inkscape="http://www.inkscape.org/namespaces/inkscape" xmlns:dc="http://purl.org/dc/elements/1.1/" xmlns:cc="http://creativecommons.org/ns#"
	 xmlns="http://www.w3.org/2000/svg" xmlns:xlink="http://www.w3.org/1999/xlink" x="0px" y="0px" viewBox="87 277 240 240"
	 style="enable-background:new 87 277 240 240;" xml:space="preserve">
<style type="text/css">
	.st0{fill:#C3C3C3;}
</style>
<g id="g5274">
	<path id="path24_3_" class="st0" d="M244.9,396.8c-1.2-23.7-18.8-37.9-40-37.9h-0.8c-24.5,0-38.1,19.3-38.1,41.2
		c0,24.5,16.4,40,38,40c24,0,39.8-17.6,41-38.4L244.9,396.8L244.9,396.8z M204.2,337.7c16.4,0,31.8,7.2,43.1,18.6v0
		c0-5.4,3.7-9.5,8.7-9.5l1.3,0c7.9,0,9.6,7.5,9.6,9.9l0,84.6c-0.6,5.5,5.7,8.4,9.2,4.8c13.6-14,29.8-71.7-8.4-105.2
		c-35.7-31.2-83.5-26.1-109-8.5c-27.1,18.7-44.4,60-27.5,98.7c18.3,42.3,70.8,54.9,102,42.3c15.8-6.4,23.1,15,6.7,21.9
		c-24.8,10.5-93.7,9.5-125.9-46.3C92.1,411.3,93.2,345,151,310.7c44.2-26.3,102.4-19,137.5,17.7c36.7,38.3,34.5,110.1-1.2,138
		c-16.2,12.7-40.3,0.3-40.1-18.1l-0.2-6c-11.3,11.2-26.3,17.7-42.7,17.7c-32.3,0-60.8-28.5-60.8-60.8
		C143.4,366.5,171.8,337.7,204.2,337.7L204.2,337.7"/>
</g>
</svg>
